# xmcd
#
# Track frame offsets: 
#        150
#        16782
#        35670
#        50570
#        68542
#        82232
#        98702
#        115709
#        132697
#        150199
#        166597
#        181827
#
# Disc length: 2650 seconds
#
# Revision: 2
# Processed by: cddbd v1.5.2PL0 Copyright (c) Steve Scherf et al.
# Submitted via: ExactAudioCopyFreeDBPlugin 1.0
#
DISCID=8c0a580c
DTITLE=Jean-Baptiste Guegan - Puisque C'est Ecrit
DYEAR=2019
DGENRE=Variété Française
TTITLE0=Retourner La-Bas
TTITLE1=Puisque C'est Ecrit
TTITLE2=Coupable
TTITLE3=Merci
TTITLE4=La Cité Des Bleuets
TTITLE5=Par Amour
TTITLE6=J'y Crois
TTITLE7=Quand Tu M'aimeras
TTITLE8=Vers Le Sud
TTITLE9=J'arrete Demain
TTITLE10=Guitar Hero
TTITLE11=Square De La Trinite
EXTD=
EXTT0=
EXTT1=
EXTT2=
EXTT3=
EXTT4=
EXTT5=
EXTT6=
EXTT7=
EXTT8=
EXTT9=
EXTT10=
EXTT11=
PLAYORDER=
